<svg width="203" height="32" viewBox="0 0 203 32" fill="none" xmlns="http://www.w3.org/2000/svg">
  <path fillRule="evenodd" clipRule="evenodd"
    d="M8.80659 3.75148C8.72588 3.38992 8.53316 3.15437 8.34455 2.99048C8.51998 1.93051 8.34867 0.697586 7.33071 0C6.31274 0.697586 6.14144 1.93133 6.31686 2.99048C6.12826 3.15437 5.93554 3.3891 5.85483 3.75065C5.80953 3.95326 5.89518 4.41942 6.10108 4.85098C6.31192 4.53554 6.52194 4.32223 6.73278 4.15586C6.77643 4.27364 6.85714 4.53307 7.04822 4.53307H7.33071H7.61238C7.80345 4.53307 7.88416 4.27364 7.92782 4.15586C8.13866 4.32223 8.34867 4.53472 8.55951 4.85098C8.76623 4.42024 8.85106 3.95408 8.80659 3.75148ZM7.33071 2.25748C7.08033 2.25748 6.87773 2.05487 6.87773 1.8045C6.87773 1.55413 7.08033 1.35152 7.33071 1.35152C7.58108 1.35152 7.78369 1.55413 7.78369 1.8045C7.78369 2.05487 7.58026 2.25748 7.33071 2.25748Z"
    fill="#1DAEE3" />
  <path
    d="M23.9675 23.8414H8.16678V5.54601L7.33083 6.38114L6.45452 5.50566V25.5528H22.2552L20.7439 27.0641H4.93911V3.56691V1.34979L3.22685 3.06205L1.71143 4.57747L0 6.28972V8.50602V31.9999H18.0738L19.7861 30.2877H1.71143V6.79376L3.22685 5.27835V28.7764H19.0325H21.2488L22.961 27.0641L24.4723 25.5528L26.1838 23.8414H23.9675Z"
    fill="#1DAEE3" />
  <path
    d="M56.375 6.90625V22.4336H61.6953V25H53.6445V6.90625H56.375ZM76.2695 9.47266H69.0156V13.8203H76.0586V16.3867H69.0156V22.4336H76.2695V25H66.2852V6.90625H76.2695V9.47266ZM92.4844 20.6055H84.7383L82.7227 25H79.7812L88.7344 5.76953L97.3711 25H94.3828L92.4844 20.6055ZM91.3711 18.0391L88.6875 11.8867L85.875 18.0391H91.3711ZM104.375 17.6523V25H101.645V6.90625H104.738C106.254 6.90625 107.398 7.01172 108.172 7.22266C108.953 7.43359 109.641 7.83203 110.234 8.41797C111.273 9.43359 111.793 10.7148 111.793 12.2617C111.793 13.918 111.238 15.2305 110.129 16.1992C109.02 17.168 107.523 17.6523 105.641 17.6523H104.375ZM104.375 15.1211H105.395C107.902 15.1211 109.156 14.1562 109.156 12.2266C109.156 10.3594 107.863 9.42578 105.277 9.42578H104.375V15.1211Z"
    fill="#1DAEE3" />
  <path
    d="M129.977 7.87891V11.1133C128.398 9.79297 126.766 9.13281 125.078 9.13281C123.219 9.13281 121.652 9.80078 120.379 11.1367C119.098 12.4648 118.457 14.0898 118.457 16.0117C118.457 17.9102 119.098 19.5117 120.379 20.8164C121.66 22.1211 123.23 22.7734 125.09 22.7734C126.051 22.7734 126.867 22.6172 127.539 22.3047C127.914 22.1484 128.301 21.9375 128.699 21.6719C129.105 21.4062 129.531 21.0859 129.977 20.7109V24.0039C128.414 24.8867 126.773 25.3281 125.055 25.3281C122.469 25.3281 120.262 24.4258 118.434 22.6211C116.613 20.8008 115.703 18.6055 115.703 16.0352C115.703 13.7305 116.465 11.6758 117.988 9.87109C119.863 7.66016 122.289 6.55469 125.266 6.55469C126.891 6.55469 128.461 6.99609 129.977 7.87891ZM138.68 13.9844H146.484V6.90625H149.215V25H146.484V16.5508H138.68V25H135.949V6.90625H138.68V13.9844ZM166.18 20.6055H158.434L156.418 25H153.477L162.43 5.76953L171.066 25H168.078L166.18 20.6055ZM165.066 18.0391L162.383 11.8867L159.57 18.0391H165.066ZM178.07 6.90625V25H175.34V6.90625H178.07ZM184.418 25V5.67578L197.613 19.4805V6.90625H200.344V26.1016L187.148 12.332V25H184.418Z"
    fill="white" />
</svg>